<svg width="116" height="116" viewBox="0 0 116 116" fill="none" xmlns="http://www.w3.org/2000/svg">
<path d="M114.784 71.6681C114.047 71.3752 113.205 71.5584 112.657 72.1319L104.4 80.8114V29.2574H104.41L112.288 20.7505C113.013 19.9672 112.965 18.7432 112.181 18.0184C112.181 18.0184 112.18 18.0175 112.179 18.0166L109.344 15.3774L113.284 11.124C114.008 10.3398 113.959 9.11673 113.175 8.39277L104.668 0.514221C103.885 -0.21062 102.662 -0.163713 101.937 0.620425L88.1912 15.4633H21.2668C21.2606 10.1265 16.9364 5.80228 11.5998 5.79609H9.66696C4.33035 5.80228 0.00619508 10.1265 0 15.4633V98.5987C0 99.6661 0.865539 100.532 1.93375 100.532H31.2001L27.1397 105.407C26.4574 106.229 26.5689 107.447 27.3893 108.13L36.304 115.552C37.1244 116.236 38.3439 116.124 39.0272 115.304L39.028 115.303L48.9233 103.414C49.6066 102.591 50.0464 101.592 50.1916 100.532H85.6176L73.9983 112.734C73.2629 113.507 73.2939 114.731 74.0674 115.467C74.4267 115.808 74.9037 115.999 75.4002 115.998H114.066C115.134 115.998 116 115.133 116 114.066V73.4647C116 72.6735 115.519 71.9619 114.784 71.6681ZM108.138 19.5229L104.4 23.5658V20.7221L106.72 18.2087L108.138 19.5229ZM100.534 19.1787V19.2061L84.183 36.8775L78.5048 31.624L98.2016 10.3372L103.88 15.5907L100.557 19.1787H100.534ZM80.4695 38.706L76.0223 40.0034L76.972 35.4677L80.4695 38.706ZM103.455 4.66148L109.131 9.91237L106.504 12.756L100.827 7.49978L103.455 4.66148ZM9.66696 9.66279H11.5998C14.8036 9.66279 17.4002 12.2595 17.4002 15.4633V88.982C15.7364 87.7022 13.6982 87.0048 11.5998 86.9977H9.66696C7.56772 87.0048 5.53043 87.7022 3.86661 88.982V15.4633C3.86661 12.2595 6.46323 9.66279 9.66696 9.66279ZM9.66696 90.8644H11.5998C14.8036 90.8644 17.4002 93.462 17.4002 96.6649H3.86661C3.86661 93.462 6.46323 90.8644 9.66696 90.8644ZM45.9532 100.941L44.716 102.426L38.7732 97.4792L40.0086 95.9923C40.6919 95.1719 41.9105 95.0604 42.7309 95.7436C42.7318 95.7436 42.7318 95.7445 42.7327 95.7445L45.7037 98.212C46.525 98.8943 46.6374 100.113 45.955 100.934C45.9541 100.935 45.9541 100.935 45.9532 100.936V100.941ZM37.2943 111.343L31.3506 106.396L36.2987 100.45L42.2415 105.398L37.2943 111.343ZM49.3791 96.6649C49.0579 96.1295 48.6516 95.6507 48.1764 95.2462L45.2054 92.7735C42.7433 90.7237 39.0865 91.0574 37.0368 93.5195L34.4136 96.6649H21.2668V19.33H84.614L74.3541 30.4177C74.2072 30.5832 74.0904 30.7743 74.0098 30.9805C73.9868 31.0363 73.9691 31.0885 73.9496 31.1469C73.9311 31.2045 73.9019 31.2629 73.8877 31.3248L71.5796 42.3603C71.3619 43.4055 72.0327 44.4295 73.0779 44.6472C73.3885 44.7118 73.7098 44.6994 74.0134 44.6109L84.8406 41.4558C84.891 41.4398 84.9335 41.4106 84.9813 41.3938C85.03 41.3761 85.0804 41.3513 85.1326 41.3257C85.3495 41.2274 85.5459 41.0885 85.7123 40.9177L100.534 24.8995V84.871L89.301 96.6649H49.3791ZM112.133 112.132H79.9102L112.133 78.2979V112.132Z" fill="black"/>
<path d="M91.1437 106.834C91.436 107.54 92.1251 108 92.8895 108H106.111C107.154 108 108 107.154 108 106.111V92.8885C108 91.8448 107.154 91 106.111 91C105.61 91 105.129 91.1989 104.776 91.5534L91.5536 104.776C91.0132 105.316 90.8515 106.129 91.1437 106.834ZM104.222 97.4481V104.222H97.4487L104.222 97.4481Z" fill="black"/>
<path d="M85.0663 73.2002H71.5336V52.3011C71.5309 51.7967 71.3265 51.3131 70.9645 50.9557L59.3647 39.5564C58.6098 38.8145 57.3858 38.8145 56.6309 39.5564L45.0311 50.9557C44.6709 51.314 44.4682 51.7976 44.4664 52.3011V73.2002H30.9337C29.8655 73.2002 29 74.0508 29 75.0997C29 76.1494 29.8655 77 30.9337 77H85.0671C86.1345 77 87 76.1494 87 75.0997C87 74.0508 86.1345 73.2002 85.0663 73.2002ZM58 43.5875L64.9332 50.4008H51.0668L58 43.5875ZM48.333 54.2006H67.667V73.2002H48.333V54.2006Z" fill="#FA0B0B"/>
</svg>
