<svg width="114" height="114" viewBox="0 0 114 114" fill="none" xmlns="http://www.w3.org/2000/svg">
<path d="M7.125 24.0469C6.1413 24.0469 5.34375 24.8444 5.34375 25.8281V41.8594H8.90625V27.6094H19.5938V24.0469H7.125Z" fill="black"/>
<path d="M112.219 95.2969H108.656V43.6406H105.094V95.2969H67.6875C67.215 95.2969 66.7621 95.4848 66.4282 95.8188L63.3876 98.8594H50.6124L47.5718 95.8188C47.2379 95.4848 46.785 95.2969 46.3125 95.2969H8.90625V88.1719H5.34375V95.2969H1.78125C0.797555 95.2969 0 96.0944 0 97.0781V105.984C0 107.952 1.59489 109.547 3.5625 109.547H110.438C112.405 109.547 114 107.952 114 105.984V97.0781C114 96.0944 113.202 95.2969 112.219 95.2969ZM110.438 105.984H3.5625V98.8594H45.5751L48.6139 101.9C48.9483 102.234 49.4021 102.422 49.875 102.422H64.125C64.5975 102.422 65.0504 102.234 65.3843 101.9L68.4249 98.8594H110.438V105.984Z" fill="black"/>
<path d="M97.9688 43.6406V88.1719H12.4688V89.9531C12.4688 90.9368 13.2663 91.7344 14.25 91.7344H99.75C100.734 91.7344 101.531 90.9368 101.531 89.9531V43.6406H97.9688Z" fill="black"/>
<path d="M14.25 31.1719C13.2663 31.1719 12.4688 31.9694 12.4688 32.9531V41.8594H16.0312V34.7344H19.5938V31.1719H14.25Z" fill="black"/>
<path d="M110.438 11.5781H65.9062V15.1406H108.656V36.5156H26.7188V15.1406H30.2812V11.5781H24.9375C23.9538 11.5781 23.1562 12.3757 23.1562 13.3594V38.2969C23.1562 39.2806 23.9538 40.0781 24.9375 40.0781H110.438C111.421 40.0781 112.219 39.2806 112.219 38.2969V13.3594C112.219 12.3757 111.421 11.5781 110.438 11.5781Z" fill="black"/>
<path d="M49.875 45.4219H3.5625C2.5788 45.4219 1.78125 46.2194 1.78125 47.2031V82.8281C1.78125 83.8118 2.5788 84.6094 3.5625 84.6094H49.875C50.8587 84.6094 51.6562 83.8118 51.6562 82.8281V47.2031C51.6562 46.2194 50.8587 45.4219 49.875 45.4219ZM8.42643 81.0469L26.7188 65.5678L45.0111 81.0469H8.42643ZM48.0938 78.9864L35.3667 68.2174L40.8369 63.84L48.0938 71.0968V78.9864ZM48.0938 66.0577L42.2299 60.1938C41.5882 59.5516 40.5662 59.4949 39.8573 60.062L32.5949 65.872L27.8694 61.8735C27.2053 61.3115 26.2322 61.3115 25.5681 61.8735L5.34375 78.9864V48.9844H48.0938V66.0577Z" fill="black"/>
<path d="M14.25 52.5469C10.315 52.5469 7.125 55.7369 7.125 59.6719C7.125 63.6069 10.315 66.7969 14.25 66.7969C18.185 66.7969 21.375 63.6069 21.375 59.6719C21.375 55.7369 18.185 52.5469 14.25 52.5469ZM14.25 63.2344C12.2824 63.2344 10.6875 61.6395 10.6875 59.6719C10.6875 57.7043 12.2824 56.1094 14.25 56.1094C16.2176 56.1094 17.8125 57.7043 17.8125 59.6719C17.8125 61.6395 16.2176 63.2344 14.25 63.2344Z" fill="black"/>
<path d="M65.9062 45.4219H57V48.9844H65.9062V45.4219Z" fill="black"/>
<path d="M92.625 50.7656H57V54.3281H92.625V50.7656Z" fill="#FA0B0B"/>
<path d="M80.1562 57.8906H57V61.4531H80.1562V57.8906Z" fill="black"/>
<path d="M65.9062 65.0156H57V68.5781H65.9062V65.0156Z" fill="black"/>
<path d="M92.625 72.1406H57V75.7031H92.625V72.1406Z" fill="#FA0B0B"/>
<path d="M80.1562 79.2656H57V82.8281H80.1562V79.2656Z" fill="black"/>
<path d="M60.5625 4.45312H35.625C34.6413 4.45312 33.8438 5.25068 33.8438 6.23438V31.1719C33.8438 32.1556 34.6413 32.9531 35.625 32.9531H60.5625C61.5462 32.9531 62.3438 32.1556 62.3438 31.1719V6.23438C62.3438 5.25068 61.5462 4.45312 60.5625 4.45312ZM37.4062 8.01562H56.263L37.4062 26.8724V8.01562ZM58.7812 29.3906H39.9261L58.7812 10.5354V29.3906Z" fill="#FA0B0B"/>
<path d="M103.312 18.7031H97.9688V22.2656H101.531V25.8281H105.094V20.4844C105.094 19.5007 104.296 18.7031 103.312 18.7031Z" fill="black"/>
</svg>
