<svg width="104" height="104" viewBox="0 0 104 104" fill="none" xmlns="http://www.w3.org/2000/svg">
<path d="M65.8929 69.3367H65.8878C64.9305 69.3371 64.155 70.1136 64.1554 71.071C64.1558 72.0283 64.9323 72.8038 65.8897 72.8034H65.8931C66.8492 72.8044 67.6244 73.5787 67.6264 74.535C67.6274 75.4916 68.4031 76.2665 69.3597 76.2667H69.3615C70.3188 76.2657 71.0939 75.4889 71.0931 74.5316C71.087 71.6629 68.7615 69.3399 65.8929 69.3367Z" fill="black"/>
<path d="M45.0684 76.2702L48.5351 76.2668C49.4924 76.2664 50.2679 75.4898 50.2675 74.5325C50.2671 73.5752 49.4906 72.7996 48.5333 72.8H48.5314L45.0647 72.8035C44.1074 72.8039 43.3318 73.5805 43.3322 74.5378C43.3327 75.4951 44.1092 76.2706 45.0665 76.2702H45.0684Z" fill="black"/>
<path d="M45.7497 69.0692L49.0082 70.2516C49.5909 70.4657 50.2436 70.3517 50.7195 69.953C51.1954 69.5542 51.4215 68.9313 51.3124 68.3203C51.2034 67.7091 50.7758 67.2029 50.1914 66.9932L46.9329 65.8109C46.034 65.4879 45.0434 65.9526 44.7174 66.8504C44.3914 67.7481 44.8531 68.7403 45.7497 69.0692Z" fill="black"/>
<path d="M50.7232 79.1505C50.2485 78.7528 49.5976 78.6386 49.0159 78.8509L45.7592 80.0392C45.1774 80.2514 44.7531 80.758 44.6461 81.3678C44.539 81.9778 44.7655 82.5986 45.2402 82.9963C45.7149 83.394 46.3657 83.5082 46.9475 83.2959L50.2042 82.1076C50.7859 81.8953 51.2103 81.3887 51.3173 80.779C51.4243 80.169 51.1979 79.5482 50.7232 79.1505Z" fill="black"/>
<path d="M86.6667 72.7964H86.6649L83.1982 72.7998C82.2457 72.8069 81.4775 73.5815 81.4779 74.5339C81.4783 75.4864 82.2473 76.2601 83.1998 76.2664H83.2014L86.6682 76.2629C87.6255 76.2625 88.401 75.486 88.4006 74.5286C88.4002 73.5713 87.6241 72.796 86.6667 72.7964Z" fill="black"/>
<path d="M82.1759 70.3277C82.3786 70.3273 82.5797 70.2914 82.77 70.2219L86.0259 69.0336C86.6076 68.8214 87.032 68.3148 87.139 67.705C87.2461 67.0952 87.0196 66.4742 86.5449 66.0765C86.0702 65.6788 85.4193 65.5647 84.8376 65.7769L81.5817 66.9652C80.7918 67.2536 80.3227 68.0674 80.469 68.8955C80.6152 69.7236 81.3349 70.3275 82.1759 70.3277Z" fill="black"/>
<path d="M86.0362 80.0041L82.7777 78.8209C81.8789 78.4979 80.8883 78.9626 80.5622 79.8605C80.2362 80.7583 80.6979 81.7503 81.5945 82.0794L84.853 83.2626C85.7515 83.5841 86.7409 83.1192 87.0665 82.2224C87.3921 81.3252 86.9316 80.3337 86.0362 80.0041Z" fill="black"/>
<path d="M35.8213 6.94621C29.3524 7.25556 24.2665 12.5904 24.2665 19.0667C24.2665 20.024 25.0425 20.7999 25.9998 20.7999C26.9571 20.7999 27.7331 20.0238 27.7331 19.0667C27.729 16.4549 28.9067 13.9816 30.9365 12.3382C32.997 10.678 35.6974 10.0382 38.2838 10.5972C41.5797 11.3124 44.1539 13.8868 44.8693 17.1827C45.3889 19.5379 44.9054 22.0033 43.5348 23.9878C42.1641 25.9723 40.0296 27.2973 37.6431 27.6453C35.9419 27.8923 34.6767 29.3456 34.6665 31.0645V32.9332C34.6665 33.8905 35.4425 34.6665 36.3998 34.6665C37.3571 34.6665 38.1331 33.8905 38.1331 32.9332L38.1339 31.0762C44.5437 30.1512 49.0975 24.3554 48.4796 17.9087C47.8619 11.4623 42.2902 6.63685 35.8213 6.94621Z" fill="#FA0B0B"/>
<path d="M37.6307 38.6361C37.4622 38.483 37.2688 38.3595 37.0585 38.2713C36.6362 38.0987 36.1632 38.0987 35.7409 38.2713C35.5288 38.3552 35.3348 38.4791 35.1695 38.6361C35.0163 38.8043 34.8928 38.9977 34.8047 39.2075C34.7159 39.4161 34.6692 39.6402 34.6667 39.8669C34.6694 39.9831 34.6812 40.0986 34.7015 40.213C34.72 40.3217 34.7549 40.4269 34.8047 40.5252C34.8427 40.6357 34.8955 40.7409 34.9613 40.8376C35.0305 40.9239 35.1 41.0103 35.1695 41.0974C35.5018 41.4139 35.9414 41.5932 36.4 41.6002C36.6273 41.606 36.8528 41.5585 37.0585 41.4614C37.2684 41.3733 37.462 41.2502 37.6307 41.0974C37.7 41.0103 37.7695 40.9239 37.8381 40.8376C37.9039 40.7409 37.9566 40.6359 37.9947 40.5252C38.0445 40.4267 38.0797 40.3215 38.0989 40.213C38.1189 40.0986 38.1304 39.9829 38.1337 39.8669C38.131 39.6402 38.0839 39.4161 37.995 39.2075C37.9064 38.9979 37.7833 38.8047 37.6307 38.6361Z" fill="#FA0B0B"/>
<path d="M76.2667 41.6V6.93327C76.2623 3.10598 73.1607 0.00446875 69.3333 0H6.93327C3.10598 0.00446875 0.00446875 3.10598 0 6.93327V41.6C0.00446875 45.4273 3.10598 48.529 6.93327 48.5333H8.66653V58.9298C8.66531 60.3326 9.5097 61.5977 10.8056 62.1345C12.1016 62.6714 13.5933 62.3738 14.5842 61.3809C14.6258 61.3401 14.6648 61.297 14.701 61.2513L25.0882 48.5333H69.3331C73.1607 48.529 76.2623 45.4273 76.2667 41.6ZM24.2667 45.0667C24.2375 45.0667 24.2133 45.082 24.1845 45.0834C23.9616 45.1169 23.7423 45.1709 23.5296 45.2451C23.4394 45.2946 23.3539 45.3523 23.2741 45.4173C23.1713 45.4846 23.076 45.5626 22.9901 45.6501C22.9706 45.6718 22.9434 45.681 22.9245 45.7039L12.1335 58.9156V46.8C12.1335 45.8427 11.3575 45.0667 10.4002 45.0667H6.93327C5.01942 45.0649 3.46856 43.5138 3.46653 41.6V6.93327C3.46836 5.01942 5.01942 3.46856 6.93327 3.46653H69.3333C71.2471 3.46836 72.798 5.01942 72.8 6.93327V41.6C72.7982 43.5138 71.2471 45.0647 69.3333 45.0667H24.2667Z" fill="black"/>
<path d="M97.0667 55.4667H95.3335V45.0701C95.3333 43.6682 94.4887 42.4041 93.1933 41.8677C91.898 41.3312 90.4071 41.6278 89.4156 42.619C89.374 42.6599 89.335 42.7029 89.2988 42.7486L78.9116 55.4667H34.6667C30.8395 55.4712 27.7377 58.5727 27.7335 62.4V97.0667C27.7379 100.894 30.8395 103.996 34.6667 104H97.0667C100.894 103.995 103.996 100.894 104 97.0667V62.4C103.996 58.5727 100.894 55.471 97.0667 55.4667ZM100.533 97.0667C100.531 98.9805 98.9804 100.531 97.0665 100.533H34.6665C32.7527 100.532 31.2018 98.9805 31.1998 97.0667V62.4C31.2016 60.4861 32.7527 58.9353 34.6665 58.9332H79.7333C79.9758 58.9318 80.2153 58.879 80.4359 58.778C80.4873 58.747 80.5372 58.7134 80.5852 58.6773C80.7448 58.5895 80.8897 58.477 81.0138 58.3438C81.0318 58.3236 81.0583 58.3169 81.0755 58.2958L91.8665 45.0842V57.2C91.8665 58.1573 92.6427 58.9332 93.5998 58.9332H97.0665C98.9804 58.9351 100.531 60.4861 100.533 62.4V97.0667Z" fill="black"/>
<path d="M67.3258 62.4863C61.9444 61.8323 56.7824 64.8286 54.6812 69.8258C52.5801 74.8231 54.0503 80.6079 58.2824 83.9956C58.6919 84.318 58.9318 84.81 58.9333 85.3312V86.6667C58.9371 87.8987 59.5967 89.0354 60.6645 89.6502L60.6665 91.8686C60.6724 93.5381 61.4768 95.1039 62.8306 96.0808C63.7122 96.7208 64.7737 97.0651 65.8631 97.0643C66.443 97.0633 67.0191 96.9694 67.5693 96.7858C69.7139 96.0206 71.1252 93.9654 71.069 91.689L71.0673 89.6509C72.1358 89.0364 72.7959 87.8993 72.7998 86.6667V85.3363C72.8108 84.796 73.0663 84.2898 73.4947 83.9601C76.8946 81.2342 78.5586 76.8853 77.8466 72.5859C76.9415 67.2726 72.6716 63.1739 67.3258 62.4863ZM66.4802 93.495C65.936 93.6906 65.3305 93.6065 64.8602 93.2699C64.4067 92.9451 64.1363 92.4227 64.1333 91.8649L64.1314 90.1333H67.6016L67.6024 91.6923C67.6382 92.4678 67.1919 93.1848 66.4802 93.495ZM71.3172 81.2628C70.0716 82.249 69.3418 83.7476 69.3333 85.3363V86.6609H69.3314L62.3998 86.6667V85.3312C62.4008 83.756 61.6815 82.2668 60.4474 81.2882C57.5821 78.9882 56.4791 75.1311 57.695 71.6639C58.9109 68.1968 62.1814 65.8734 65.8556 65.8667C66.2116 65.8667 66.5675 65.8875 66.9212 65.9293C70.7314 66.4178 73.7754 69.3377 74.4224 73.1242C74.9338 76.1987 73.7468 79.3102 71.3172 81.2628Z" fill="black"/>
</svg>
