<svg width="116" height="116" viewBox="0 0 116 116" fill="none" xmlns="http://www.w3.org/2000/svg">
<path d="M59.9333 96.6667H56.0667V100.533H59.9333V96.6667Z" fill="black"/>
<path d="M114.067 100.533H112.133V30.9333C112.133 26.6624 108.671 23.2 104.4 23.2H92.8V7.73333C92.8 3.46236 89.3376 0 85.0667 0H30.9333C26.6624 0 23.2 3.46236 23.2 7.73333V23.2H11.6C7.32902 23.2 3.86667 26.6624 3.86667 30.9333V100.533H1.93333C0.86565 100.533 0 101.399 0 102.467V108.267C0 112.538 3.46236 116 7.73333 116H108.267C112.538 116 116 112.538 116 108.267V102.467C116 101.399 115.134 100.533 114.067 100.533ZM27.0667 7.73333C27.0667 5.59772 28.7977 3.86667 30.9333 3.86667H85.0667C87.2023 3.86667 88.9333 5.59772 88.9333 7.73333V15.4667H27.0667V7.73333ZM27.0667 19.3333H88.9333V75.4C88.9333 77.5356 87.2023 79.2667 85.0667 79.2667H30.9333C28.7977 79.2667 27.0667 77.5356 27.0667 75.4V19.3333ZM30.9333 83.1333H85.0667C89.3376 83.1333 92.8 79.671 92.8 75.4V34.8H100.533V88.9333H15.4667V34.8H23.2V75.4C23.2 79.671 26.6624 83.1333 30.9333 83.1333ZM7.73333 30.9333C7.73333 28.7977 9.46439 27.0667 11.6 27.0667H23.2V30.9333H13.5333C12.4656 30.9333 11.6 31.799 11.6 32.8667V90.8667C11.6 91.9343 12.4656 92.8 13.5333 92.8H102.467C103.534 92.8 104.4 91.9343 104.4 90.8667V32.8667C104.4 31.799 103.534 30.9333 102.467 30.9333H92.8V27.0667H104.4C106.536 27.0667 108.267 28.7977 108.267 30.9333V100.533H75.4C74.8877 100.533 74.3959 100.736 74.0331 101.098L70.7329 104.4H45.2671L41.9669 101.098C41.6041 100.736 41.1123 100.533 40.6 100.533H7.73333V30.9333ZM112.133 108.267C112.133 110.402 110.402 112.133 108.267 112.133H7.73333C5.59772 112.133 3.86667 110.402 3.86667 108.267V104.4H39.7996L43.0998 107.7C43.4623 108.063 43.9538 108.267 44.4667 108.267H71.5333C72.0462 108.267 72.5377 108.063 72.9002 107.7L76.2004 104.4H112.133V108.267Z" fill="black"/>
<path d="M83.1333 61.8667H32.8667V65.7334H83.1333V61.8667Z" fill="black"/>
<path d="M79.2667 69.6001H32.8667V73.4668H79.2667V69.6001Z" fill="#FA0B0B"/>
<path d="M83.1333 54.1333H44.4667V58H83.1333V54.1333Z" fill="#FA0B0B"/>
<path d="M34.8 7.7334H30.9333V11.6001H34.8V7.7334Z" fill="black"/>
<path d="M42.5333 7.7334H38.6667V11.6001H42.5333V7.7334Z" fill="black"/>
<path d="M50.2667 7.7334H46.4V11.6001H50.2667V7.7334Z" fill="black"/>
<path d="M40.6 54.1333H36.7333V58H40.6V54.1333Z" fill="black"/>
<path d="M51.4267 32.4798L49.1067 29.3865L41.3733 35.1865C40.519 35.8271 40.346 37.0388 40.9867 37.8931C41.0966 38.0396 41.2269 38.1698 41.3733 38.2798L49.1067 44.0798L51.4267 40.9865L45.7562 36.7331L51.4267 32.4798Z" fill="#FA0B0B"/>
<path d="M75.0134 35.5731C74.9034 35.4267 74.7732 35.2964 74.6267 35.1865L66.8934 29.3865L64.5734 32.4798L70.2438 36.7331L64.5734 40.9865L66.8934 44.0798L74.6267 38.2798C75.481 37.6391 75.654 36.4274 75.0134 35.5731Z" fill="#FA0B0B"/>
<path d="M60.0736 26.3525L52.3383 45.6836L55.9281 47.1201L63.6634 27.7889L60.0736 26.3525Z" fill="#FA0B0B"/>
</svg>
