<svg width="258" height="45" viewBox="0 0 258 45" fill="none" xmlns="http://www.w3.org/2000/svg">
<rect width="258" height="45" fill="white"/>
<path d="M46.0653 14.644V28H43.3833V26.884C42.6873 27.724 41.6793 28.144 40.3593 28.144C39.4473 28.144 38.6193 27.94 37.8753 27.532C37.1433 27.124 36.5673 26.542 36.1473 25.786C35.7273 25.03 35.5173 24.154 35.5173 23.158C35.5173 22.162 35.7273 21.286 36.1473 20.53C36.5673 19.774 37.1433 19.192 37.8753 18.784C38.6193 18.376 39.4473 18.172 40.3593 18.172C41.5953 18.172 42.5613 18.562 43.2573 19.342V14.644H46.0653ZM40.8453 25.84C41.5533 25.84 42.1413 25.6 42.6093 25.12C43.0773 24.628 43.3113 23.974 43.3113 23.158C43.3113 22.342 43.0773 21.694 42.6093 21.214C42.1413 20.722 41.5533 20.476 40.8453 20.476C40.1253 20.476 39.5313 20.722 39.0633 21.214C38.5953 21.694 38.3613 22.342 38.3613 23.158C38.3613 23.974 38.5953 24.628 39.0633 25.12C39.5313 25.6 40.1253 25.84 40.8453 25.84ZM53.2722 28.144C52.2522 28.144 51.3342 27.934 50.5182 27.514C49.7142 27.082 49.0842 26.488 48.6282 25.732C48.1722 24.976 47.9442 24.118 47.9442 23.158C47.9442 22.198 48.1722 21.34 48.6282 20.584C49.0842 19.828 49.7142 19.24 50.5182 18.82C51.3342 18.388 52.2522 18.172 53.2722 18.172C54.2922 18.172 55.2042 18.388 56.0082 18.82C56.8122 19.24 57.4422 19.828 57.8982 20.584C58.3542 21.34 58.5822 22.198 58.5822 23.158C58.5822 24.118 58.3542 24.976 57.8982 25.732C57.4422 26.488 56.8122 27.082 56.0082 27.514C55.2042 27.934 54.2922 28.144 53.2722 28.144ZM53.2722 25.84C53.9922 25.84 54.5802 25.6 55.0362 25.12C55.5042 24.628 55.7382 23.974 55.7382 23.158C55.7382 22.342 55.5042 21.694 55.0362 21.214C54.5802 20.722 53.9922 20.476 53.2722 20.476C52.5522 20.476 51.9582 20.722 51.4902 21.214C51.0222 21.694 50.7882 22.342 50.7882 23.158C50.7882 23.974 51.0222 24.628 51.4902 25.12C51.9582 25.6 52.5522 25.84 53.2722 25.84ZM72.8611 18.172C74.0731 18.172 75.0331 18.532 75.7411 19.252C76.4611 19.96 76.8211 21.028 76.8211 22.456V28H74.0131V22.888C74.0131 22.12 73.8511 21.55 73.5271 21.178C73.2151 20.794 72.7651 20.602 72.1771 20.602C71.5171 20.602 70.9951 20.818 70.6111 21.25C70.2271 21.67 70.0351 22.3 70.0351 23.14V28H67.2271V22.888C67.2271 21.364 66.6151 20.602 65.3911 20.602C64.7431 20.602 64.2271 20.818 63.8431 21.25C63.4591 21.67 63.2671 22.3 63.2671 23.14V28H60.4591V18.316H63.1411V19.432C63.5011 19.024 63.9391 18.712 64.4551 18.496C64.9831 18.28 65.5591 18.172 66.1831 18.172C66.8671 18.172 67.4851 18.31 68.0371 18.586C68.5891 18.85 69.0331 19.24 69.3691 19.756C69.7651 19.252 70.2631 18.862 70.8631 18.586C71.4751 18.31 72.1411 18.172 72.8611 18.172ZM79.338 18.316H82.146V28H79.338V18.316ZM80.742 16.966C80.226 16.966 79.806 16.816 79.482 16.516C79.158 16.216 78.996 15.844 78.996 15.4C78.996 14.956 79.158 14.584 79.482 14.284C79.806 13.984 80.226 13.834 80.742 13.834C81.258 13.834 81.678 13.978 82.002 14.266C82.326 14.554 82.488 14.914 82.488 15.346C82.488 15.814 82.326 16.204 82.002 16.516C81.678 16.816 81.258 16.966 80.742 16.966ZM90.6381 18.172C91.8381 18.172 92.8041 18.532 93.5361 19.252C94.2801 19.972 94.6521 21.04 94.6521 22.456V28H91.8441V22.888C91.8441 22.12 91.6761 21.55 91.3401 21.178C91.0041 20.794 90.5181 20.602 89.8821 20.602C89.1741 20.602 88.6101 20.824 88.1901 21.268C87.7701 21.7 87.5601 22.348 87.5601 23.212V28H84.7521V18.316H87.4341V19.45C87.8061 19.042 88.2681 18.73 88.8201 18.514C89.3721 18.286 89.9781 18.172 90.6381 18.172ZM97.1974 18.316H100.005V28H97.1974V18.316ZM98.6014 16.966C98.0854 16.966 97.6654 16.816 97.3414 16.516C97.0174 16.216 96.8554 15.844 96.8554 15.4C96.8554 14.956 97.0174 14.584 97.3414 14.284C97.6654 13.984 98.0854 13.834 98.6014 13.834C99.1174 13.834 99.5374 13.978 99.8614 14.266C100.185 14.554 100.347 14.914 100.347 15.346C100.347 15.814 100.185 16.204 99.8614 16.516C99.5374 16.816 99.1174 16.966 98.6014 16.966ZM106.769 24.202L105.419 25.534V28H102.611V14.644H105.419V22.204L109.523 18.316H112.871L108.839 22.42L113.231 28H109.829L106.769 24.202ZM118.224 18.172C119.724 18.172 120.876 18.532 121.68 19.252C122.484 19.96 122.886 21.034 122.886 22.474V28H120.258V26.794C119.73 27.694 118.746 28.144 117.306 28.144C116.562 28.144 115.914 28.018 115.362 27.766C114.822 27.514 114.408 27.166 114.12 26.722C113.832 26.278 113.688 25.774 113.688 25.21C113.688 24.31 114.024 23.602 114.696 23.086C115.38 22.57 116.43 22.312 117.846 22.312H120.078C120.078 21.7 119.892 21.232 119.52 20.908C119.148 20.572 118.59 20.404 117.846 20.404C117.33 20.404 116.82 20.488 116.316 20.656C115.824 20.812 115.404 21.028 115.056 21.304L114.048 19.342C114.576 18.97 115.206 18.682 115.938 18.478C116.682 18.274 117.444 18.172 118.224 18.172ZM118.008 26.254C118.488 26.254 118.914 26.146 119.286 25.93C119.658 25.702 119.922 25.372 120.078 24.94V23.95H118.152C117 23.95 116.424 24.328 116.424 25.084C116.424 25.444 116.562 25.732 116.838 25.948C117.126 26.152 117.516 26.254 118.008 26.254ZM141.09 15.4H146.22C147.552 15.4 148.728 15.67 149.748 16.21C150.768 16.738 151.56 17.482 152.124 18.442C152.688 19.39 152.97 20.476 152.97 21.7C152.97 22.924 152.688 24.016 152.124 24.976C151.56 25.924 150.768 26.668 149.748 27.208C148.728 27.736 147.552 28 146.22 28H141.09V15.4ZM146.148 26.848C147.252 26.848 148.218 26.632 149.046 26.2C149.874 25.756 150.516 25.15 150.972 24.382C151.428 23.602 151.656 22.708 151.656 21.7C151.656 20.692 151.428 19.804 150.972 19.036C150.516 18.256 149.874 17.65 149.046 17.218C148.218 16.774 147.252 16.552 146.148 16.552H142.422V26.848H146.148ZM164.871 26.848V28H155.961V15.4H164.601V16.552H157.293V21.034H163.809V22.168H157.293V26.848H164.871ZM171.476 28.108C170.54 28.108 169.64 27.958 168.776 27.658C167.924 27.358 167.264 26.962 166.796 26.47L167.318 25.444C167.774 25.9 168.38 26.272 169.136 26.56C169.892 26.836 170.672 26.974 171.476 26.974C172.604 26.974 173.45 26.77 174.014 26.362C174.578 25.942 174.86 25.402 174.86 24.742C174.86 24.238 174.704 23.836 174.392 23.536C174.092 23.236 173.72 23.008 173.276 22.852C172.832 22.684 172.214 22.504 171.422 22.312C170.474 22.072 169.718 21.844 169.154 21.628C168.59 21.4 168.104 21.058 167.696 20.602C167.3 20.146 167.102 19.528 167.102 18.748C167.102 18.112 167.27 17.536 167.606 17.02C167.942 16.492 168.458 16.072 169.154 15.76C169.85 15.448 170.714 15.292 171.746 15.292C172.466 15.292 173.168 15.394 173.852 15.598C174.548 15.79 175.148 16.06 175.652 16.408L175.202 17.47C174.674 17.122 174.11 16.864 173.51 16.696C172.91 16.516 172.322 16.426 171.746 16.426C170.642 16.426 169.808 16.642 169.244 17.074C168.692 17.494 168.416 18.04 168.416 18.712C168.416 19.216 168.566 19.624 168.866 19.936C169.178 20.236 169.562 20.47 170.018 20.638C170.486 20.794 171.11 20.968 171.89 21.16C172.814 21.388 173.558 21.616 174.122 21.844C174.698 22.06 175.184 22.396 175.58 22.852C175.976 23.296 176.174 23.902 176.174 24.67C176.174 25.306 176 25.888 175.652 26.416C175.316 26.932 174.794 27.346 174.086 27.658C173.378 27.958 172.508 28.108 171.476 28.108ZM179.076 15.4H180.408V28H179.076V15.4ZM193.382 21.7H194.66V26.506C194.072 27.022 193.376 27.418 192.572 27.694C191.768 27.97 190.922 28.108 190.034 28.108C188.774 28.108 187.64 27.832 186.632 27.28C185.624 26.728 184.832 25.966 184.256 24.994C183.68 24.01 183.392 22.912 183.392 21.7C183.392 20.488 183.68 19.396 184.256 18.424C184.832 17.44 185.624 16.672 186.632 16.12C187.64 15.568 188.78 15.292 190.052 15.292C191.012 15.292 191.894 15.448 192.698 15.76C193.502 16.06 194.18 16.51 194.732 17.11L193.904 17.956C192.908 16.972 191.642 16.48 190.106 16.48C189.086 16.48 188.162 16.708 187.334 17.164C186.518 17.608 185.876 18.232 185.408 19.036C184.94 19.828 184.706 20.716 184.706 21.7C184.706 22.684 184.94 23.572 185.408 24.364C185.876 25.156 186.518 25.78 187.334 26.236C188.15 26.692 189.068 26.92 190.088 26.92C191.384 26.92 192.482 26.596 193.382 25.948V21.7ZM208.96 15.4V28H207.862L199.762 17.776V28H198.43V15.4H199.528L207.646 25.624V15.4H208.96ZM216.547 28.108C215.611 28.108 214.711 27.958 213.847 27.658C212.995 27.358 212.335 26.962 211.867 26.47L212.389 25.444C212.845 25.9 213.451 26.272 214.207 26.56C214.963 26.836 215.743 26.974 216.547 26.974C217.675 26.974 218.521 26.77 219.085 26.362C219.649 25.942 219.931 25.402 219.931 24.742C219.931 24.238 219.775 23.836 219.463 23.536C219.163 23.236 218.791 23.008 218.347 22.852C217.903 22.684 217.285 22.504 216.493 22.312C215.545 22.072 214.789 21.844 214.225 21.628C213.661 21.4 213.175 21.058 212.767 20.602C212.371 20.146 212.173 19.528 212.173 18.748C212.173 18.112 212.341 17.536 212.677 17.02C213.013 16.492 213.529 16.072 214.225 15.76C214.921 15.448 215.785 15.292 216.817 15.292C217.537 15.292 218.239 15.394 218.923 15.598C219.619 15.79 220.219 16.06 220.723 16.408L220.273 17.47C219.745 17.122 219.181 16.864 218.581 16.696C217.981 16.516 217.393 16.426 216.817 16.426C215.713 16.426 214.879 16.642 214.315 17.074C213.763 17.494 213.487 18.04 213.487 18.712C213.487 19.216 213.637 19.624 213.937 19.936C214.249 20.236 214.633 20.47 215.089 20.638C215.557 20.794 216.181 20.968 216.961 21.16C217.885 21.388 218.629 21.616 219.193 21.844C219.769 22.06 220.255 22.396 220.651 22.852C221.047 23.296 221.245 23.902 221.245 24.67C221.245 25.306 221.071 25.888 220.723 26.416C220.387 26.932 219.865 27.346 219.157 27.658C218.449 27.958 217.579 28.108 216.547 28.108Z" fill="black"/>
</svg>
