<svg width="275" height="60" viewBox="0 0 275 60" fill="none" xmlns="http://www.w3.org/2000/svg">
<path d="M0 0H274.319V60H0V0Z" fill="#FA0B0B"/>
<path d="M67.8981 24.4H73.4061C74.7501 24.4 75.9441 24.664 76.9881 25.192C78.0321 25.708 78.8421 26.446 79.4181 27.406C79.9941 28.354 80.2821 29.452 80.2821 30.7C80.2821 31.948 79.9941 33.052 79.4181 34.012C78.8421 34.96 78.0321 35.698 76.9881 36.226C75.9441 36.742 74.7501 37 73.4061 37H67.8981V24.4ZM73.2981 35.02C74.2221 35.02 75.0321 34.846 75.7281 34.498C76.4361 34.138 76.9761 33.634 77.3481 32.986C77.7321 32.326 77.9241 31.564 77.9241 30.7C77.9241 29.836 77.7321 29.08 77.3481 28.432C76.9761 27.772 76.4361 27.268 75.7281 26.92C75.0321 26.56 74.2221 26.38 73.2981 26.38H70.2381V35.02H73.2981ZM88.6551 37.18C87.3711 37.18 86.2131 36.904 85.1811 36.352C84.1491 35.788 83.3391 35.014 82.7511 34.03C82.1631 33.034 81.8691 31.924 81.8691 30.7C81.8691 29.476 82.1631 28.372 82.7511 27.388C83.3391 26.392 84.1491 25.618 85.1811 25.066C86.2131 24.502 87.3711 24.22 88.6551 24.22C89.9391 24.22 91.0971 24.502 92.1291 25.066C93.1611 25.618 93.9711 26.386 94.5591 27.37C95.1471 28.354 95.4411 29.464 95.4411 30.7C95.4411 31.936 95.1471 33.046 94.5591 34.03C93.9711 35.014 93.1611 35.788 92.1291 36.352C91.0971 36.904 89.9391 37.18 88.6551 37.18ZM88.6551 35.128C89.4951 35.128 90.2511 34.942 90.9231 34.57C91.5951 34.186 92.1231 33.658 92.5071 32.986C92.8911 32.302 93.0831 31.54 93.0831 30.7C93.0831 29.86 92.8911 29.104 92.5071 28.432C92.1231 27.748 91.5951 27.22 90.9231 26.848C90.2511 26.464 89.4951 26.272 88.6551 26.272C87.8151 26.272 87.0591 26.464 86.3871 26.848C85.7151 27.22 85.1871 27.748 84.8031 28.432C84.4191 29.104 84.2271 29.86 84.2271 30.7C84.2271 31.54 84.4191 32.302 84.8031 32.986C85.1871 33.658 85.7151 34.186 86.3871 34.57C87.0591 34.942 87.8151 35.128 88.6551 35.128ZM115.931 24.4L111.755 37H109.271L106.157 27.676L102.989 37H100.487L96.3112 24.4H98.7412L101.873 33.976L105.131 24.4H107.291L110.477 34.03L113.699 24.4H115.931ZM129.034 24.4V37H127.108L120.16 28.468V37H117.838V24.4H119.764L126.712 32.932V24.4H129.034ZM132.41 24.4H134.75V35.02H141.338V37H132.41V24.4ZM148.843 37.18C147.559 37.18 146.401 36.904 145.369 36.352C144.337 35.788 143.527 35.014 142.939 34.03C142.351 33.034 142.057 31.924 142.057 30.7C142.057 29.476 142.351 28.372 142.939 27.388C143.527 26.392 144.337 25.618 145.369 25.066C146.401 24.502 147.559 24.22 148.843 24.22C150.127 24.22 151.285 24.502 152.317 25.066C153.349 25.618 154.159 26.386 154.747 27.37C155.335 28.354 155.629 29.464 155.629 30.7C155.629 31.936 155.335 33.046 154.747 34.03C154.159 35.014 153.349 35.788 152.317 36.352C151.285 36.904 150.127 37.18 148.843 37.18ZM148.843 35.128C149.683 35.128 150.439 34.942 151.111 34.57C151.783 34.186 152.311 33.658 152.695 32.986C153.079 32.302 153.271 31.54 153.271 30.7C153.271 29.86 153.079 29.104 152.695 28.432C152.311 27.748 151.783 27.22 151.111 26.848C150.439 26.464 149.683 26.272 148.843 26.272C148.003 26.272 147.247 26.464 146.575 26.848C145.903 27.22 145.375 27.748 144.991 28.432C144.607 29.104 144.415 29.86 144.415 30.7C144.415 31.54 144.607 32.302 144.991 32.986C145.375 33.658 145.903 34.186 146.575 34.57C147.247 34.942 148.003 35.128 148.843 35.128ZM166.105 34.084H159.805L158.563 37H156.151L161.821 24.4H164.125L169.813 37H167.365L166.105 34.084ZM165.331 32.248L162.955 26.74L160.597 32.248H165.331ZM171.416 24.4H176.924C178.268 24.4 179.462 24.664 180.506 25.192C181.55 25.708 182.36 26.446 182.936 27.406C183.512 28.354 183.8 29.452 183.8 30.7C183.8 31.948 183.512 33.052 182.936 34.012C182.36 34.96 181.55 35.698 180.506 36.226C179.462 36.742 178.268 37 176.924 37H171.416V24.4ZM176.816 35.02C177.74 35.02 178.55 34.846 179.246 34.498C179.954 34.138 180.494 33.634 180.866 32.986C181.25 32.326 181.442 31.564 181.442 30.7C181.442 29.836 181.25 29.08 180.866 28.432C180.494 27.772 179.954 27.268 179.246 26.92C178.55 26.56 177.74 26.38 176.816 26.38H173.756V35.02H176.816ZM202.835 37L202.817 28.648L198.677 35.56H197.633L193.493 28.756V37H191.261V24.4H193.187L198.191 32.752L203.105 24.4H205.031L205.049 37H202.835ZM213.889 32.554V37H211.549V32.59L206.599 24.4H209.101L212.791 30.538L216.517 24.4H218.821L213.889 32.554ZM231.301 37.252C229.981 37.252 228.793 36.976 227.737 36.424C226.693 35.86 225.871 35.08 225.271 34.084C224.671 33.088 224.371 31.96 224.371 30.7C224.371 29.44 224.671 28.312 225.271 27.316C225.871 26.32 226.693 25.546 227.737 24.994C228.793 24.43 229.981 24.148 231.301 24.148C232.453 24.148 233.491 24.352 234.415 24.76C235.339 25.168 236.107 25.756 236.719 26.524L234.451 28.576C233.635 27.592 232.645 27.1 231.481 27.1C230.797 27.1 230.185 27.25 229.645 27.55C229.117 27.85 228.703 28.276 228.403 28.828C228.115 29.368 227.971 29.992 227.971 30.7C227.971 31.408 228.115 32.038 228.403 32.59C228.703 33.13 229.117 33.55 229.645 33.85C230.185 34.15 230.797 34.3 231.481 34.3C232.645 34.3 233.635 33.808 234.451 32.824L236.719 34.876C236.107 35.644 235.339 36.232 234.415 36.64C233.491 37.048 232.453 37.252 231.301 37.252ZM251.053 24.4L245.653 37H242.143L236.761 24.4H240.613L244.033 32.608L247.525 24.4H251.053Z" fill="black"/>
<path d="M29.8031 35.6562C29.8265 35.6861 29.8564 35.7103 29.8905 35.7269C29.9246 35.7435 29.9621 35.7522 30 35.7522C30.0379 35.7522 30.0754 35.7435 30.1095 35.7269C30.1436 35.7103 30.1735 35.6861 30.1969 35.6562L33.6969 31.2281C33.825 31.0656 33.7094 30.825 33.5 30.825H31.1844V20.25C31.1844 20.1125 31.0719 20 30.9344 20H29.0594C28.9219 20 28.8094 20.1125 28.8094 20.25V30.8219H26.5C26.2906 30.8219 26.175 31.0625 26.3031 31.225L29.8031 35.6562ZM41.4375 34.5625H39.5625C39.425 34.5625 39.3125 34.675 39.3125 34.8125V39.625H20.6875V34.8125C20.6875 34.675 20.575 34.5625 20.4375 34.5625H18.5625C18.425 34.5625 18.3125 34.675 18.3125 34.8125V41C18.3125 41.5531 18.7594 42 19.3125 42H40.6875C41.2406 42 41.6875 41.5531 41.6875 41V34.8125C41.6875 34.675 41.575 34.5625 41.4375 34.5625Z" fill="black"/>
</svg>
