<svg width="37" height="34" viewBox="0 0 37 34" fill="none" xmlns="http://www.w3.org/2000/svg">
<path d="M33.5312 5.3125H3.46875C2.8292 5.3125 2.3125 5.7873 2.3125 6.375V27.625C2.3125 28.2127 2.8292 28.6875 3.46875 28.6875H33.5312C34.1708 28.6875 34.6875 28.2127 34.6875 27.625V6.375C34.6875 5.7873 34.1708 5.3125 33.5312 5.3125ZM32.0859 8.99141V26.2969H4.91406V8.99141L3.9168 8.27754L5.33682 6.60078L6.8833 7.70645H30.1203L31.6668 6.60078L33.0868 8.27754L32.0859 8.99141ZM30.1203 7.70312L18.5 16.0039L6.87969 7.70312L5.3332 6.59746L3.91318 8.27422L4.91045 8.98809L17.2534 17.8068C17.6084 18.0602 18.0451 18.1978 18.4946 18.1978C18.9441 18.1978 19.3808 18.0602 19.7357 17.8068L32.0859 8.99141L33.0832 8.27754L31.6632 6.60078L30.1203 7.70312Z" fill="black"/>
</svg>
